<svg width="39" height="37" viewBox="0 0 39 37" fill="none" xmlns="http://www.w3.org/2000/svg">
<path d="M39 10.8533L36.8492 7.23556L32.9613 9.04444L30.8106 5.42667L26.9227 7.23556L24.7719 3.61778L20.884 5.42667L18.7333 1.80889L14.8454 3.61778L12.7773 0L8.88942 1.80889L0.700012 27.9556L10.6266 30.9156C11.2883 28.7778 13.3564 27.2978 15.6726 27.2978C18.5678 27.2978 20.9667 29.6 20.9667 32.4778V32.56C20.9667 33.0533 20.9667 33.4644 20.8013 33.9578L30.8933 37L39 10.8533Z" fill="#1F2937"/>
<path d="M19.5605 10.9356C19.3123 10.9356 19.0641 10.8533 18.816 10.8533H9.46846C8.88941 10.8533 8.39308 11.3467 8.39308 11.9222V24.7489C8.39308 25.2422 8.72397 25.7356 9.30302 25.8178C9.6339 25.9 10.0475 25.7356 10.2957 25.4889C10.5438 25.3244 10.6266 24.9956 10.6266 24.7489V12.9911H14.7626V24.7489C14.7626 25.2422 15.0935 25.7356 15.6726 25.8178C15.7553 25.8178 15.838 25.8178 15.838 25.8178C16.4171 25.8178 16.9134 25.3244 16.9134 24.7489V12.9911H18.9814C20.1395 12.9911 21.0495 13.8956 21.0495 15.0467V24.7489C21.0495 25.2422 21.3803 25.7356 21.9594 25.8178C22.2903 25.9 22.7039 25.7356 22.952 25.4889C23.2002 25.3244 23.2829 24.9956 23.2829 24.7489V15.0467C23.0348 12.9911 21.6285 11.2644 19.5605 10.9356Z" fill="#F5F5F5"/>
<path d="M33.375 10.7711C32.7132 10.6889 32.2169 11.0178 32.0514 11.5111L29.3216 20.4733L26.5918 11.5111C26.4264 10.9356 25.8473 10.6889 25.2683 10.7711C24.6892 10.9356 24.3583 11.5111 24.5238 12.0867L28.1635 24.0911L27.0054 27.7911C26.7573 28.6133 25.93 29.2711 25.0201 29.2711C24.7719 29.2711 24.4411 29.3533 24.2756 29.6C24.1102 29.7644 23.9447 30.0933 23.9447 30.34C23.9447 30.8333 24.2756 31.3267 24.8547 31.4089C24.9374 31.4089 25.0201 31.4089 25.0201 31.4089C25.93 31.4089 26.84 31.1622 27.5845 30.5867C28.2462 30.0933 28.8253 29.3533 29.0735 28.4489L30.2316 24.5022L34.0367 12.1689C34.2849 11.5933 33.954 10.9356 33.375 10.7711Z" fill="#F5F5F5"/>
</svg>
