<svg width="213" height="40" viewBox="0 0 213 40" fill="none" xmlns="http://www.w3.org/2000/svg">
<path d="M119 13.8533L116.849 10.2356L112.961 12.0444L110.811 8.42667L106.923 10.2356L104.772 6.61778L100.884 8.42667L98.7333 4.80889L94.8454 6.61778L92.7773 3L88.8894 4.80889L80.7 30.9556L90.6266 33.9156C91.2883 31.7778 93.3564 30.2978 95.6726 30.2978C98.5678 30.2978 100.967 32.6 100.967 35.4778V35.56C100.967 36.0533 100.967 36.4644 100.801 36.9578L110.893 40L119 13.8533Z" fill="#F84464"/>
<path d="M99.5604 13.9356C99.3123 13.9356 99.0641 13.8533 98.816 13.8533H89.4684C88.8894 13.8533 88.3931 14.3467 88.3931 14.9222V27.7489C88.3931 28.2422 88.724 28.7356 89.303 28.8178C89.6339 28.9 90.0475 28.7356 90.2957 28.4889C90.5438 28.3244 90.6265 27.9956 90.6265 27.7489V15.9911H94.7626V27.7489C94.7626 28.2422 95.0935 28.7356 95.6725 28.8178C95.7553 28.8178 95.838 28.8178 95.838 28.8178C96.417 28.8178 96.9134 28.3244 96.9134 27.7489V15.9911H98.9814C100.14 15.9911 101.049 16.8956 101.049 18.0467V27.7489C101.049 28.2422 101.38 28.7356 101.959 28.8178C102.29 28.9 102.704 28.7356 102.952 28.4889C103.2 28.3244 103.283 27.9956 103.283 27.7489V18.0467C103.035 15.9911 101.628 14.2644 99.5604 13.9356Z" fill="#F5F5F5"/>
<path d="M113.375 13.7711C112.713 13.6889 112.217 14.0178 112.051 14.5111L109.322 23.4733L106.592 14.5111C106.426 13.9356 105.847 13.6889 105.268 13.7711C104.689 13.9356 104.358 14.5111 104.524 15.0867L108.164 27.0911L107.005 30.7911C106.757 31.6133 105.93 32.2711 105.02 32.2711C104.772 32.2711 104.441 32.3533 104.276 32.6C104.11 32.7644 103.945 33.0933 103.945 33.34C103.945 33.8333 104.276 34.3267 104.855 34.4089C104.937 34.4089 105.02 34.4089 105.02 34.4089C105.93 34.4089 106.84 34.1622 107.584 33.5867C108.246 33.0933 108.825 32.3533 109.073 31.4489L110.232 27.5022L114.037 15.1689C114.285 14.5933 113.954 13.9356 113.375 13.7711Z" fill="#F5F5F5"/>
<path d="M124.984 24.992C124.984 26.8267 125.261 28.0747 125.816 28.736C126.371 29.3973 127.213 29.728 128.344 29.728C129.475 29.728 130.403 29.5573 131.128 29.216L131.768 30.816C131.683 30.9227 131.555 31.0613 131.384 31.232C131.235 31.4027 130.84 31.6373 130.2 31.936C129.56 32.2133 128.856 32.352 128.088 32.352C126.147 32.352 124.643 31.808 123.576 30.72C122.509 29.6107 121.976 28 121.976 25.888V18.528H120.28V16.64L123.352 13.568H124.984V16H130.36V18.528H124.984V24.992ZM141.855 32H133.439V30.624L136.127 29.568V18.144H133.439V16.224C134.271 15.8187 135.231 15.616 136.319 15.616C137.428 15.616 138.175 15.8827 138.559 16.416C138.943 16.928 139.135 17.7173 139.135 18.784V29.568L141.855 30.624V32ZM139.263 11.936C138.772 12.4267 138.175 12.672 137.471 12.672C136.767 12.672 136.169 12.4267 135.679 11.936C135.188 11.4453 134.943 10.848 134.943 10.144C134.943 9.44 135.188 8.84267 135.679 8.352C136.169 7.86133 136.767 7.616 137.471 7.616C138.175 7.616 138.772 7.86133 139.263 8.352C139.753 8.84267 139.999 9.44 139.999 10.144C139.999 10.848 139.753 11.4453 139.263 11.936ZM152.288 32.32C149.92 32.32 147.968 31.6267 146.432 30.24C144.917 28.8533 144.16 26.848 144.16 24.224C144.16 22.7733 144.448 21.4827 145.024 20.352C145.6 19.2 146.357 18.2933 147.296 17.632C149.237 16.288 151.36 15.616 153.664 15.616C154.368 15.616 155.061 15.7013 155.744 15.872C156.426 16.0427 156.938 16.2133 157.28 16.384L157.792 16.672V20.448H155.84L155.392 18.496C155.093 18.2613 154.517 18.144 153.664 18.144C151.829 18.144 150.304 18.6987 149.088 19.808C147.872 20.9173 147.264 22.3147 147.264 24C147.264 25.6853 147.786 27.0827 148.832 28.192C149.898 29.28 151.306 29.824 153.056 29.824C153.909 29.824 154.698 29.7387 155.424 29.568C156.17 29.376 156.693 29.184 156.992 28.992L157.44 28.736L158.368 30.4C158.304 30.4427 158.208 30.5173 158.08 30.624C157.973 30.7093 157.728 30.8587 157.344 31.072C156.96 31.2853 156.554 31.4773 156.128 31.648C154.976 32.096 153.696 32.32 152.288 32.32ZM179.758 32H172.078V30.624L173.742 30.016L166.126 22.528L172.046 17.696L169.774 17.376V16H177.806V17.376L175.406 17.984L169.774 22.528L177.358 30.016L179.758 30.624V32ZM168.782 32H160.366V30.624L163.054 29.568V9.824H160.366V7.904C161.198 7.49867 162.158 7.296 163.246 7.296C164.355 7.296 165.102 7.56267 165.486 8.096C165.87 8.608 166.062 9.39733 166.062 10.464V29.568L168.782 30.624V32ZM189.445 32.32C187.034 32.32 185.071 31.6373 183.557 30.272C182.063 28.8853 181.317 26.8693 181.317 24.224C181.317 21.5787 182.085 19.488 183.621 17.952C185.157 16.3947 186.949 15.616 188.997 15.616C193.861 15.616 196.293 18.496 196.293 24.256H184.421V24.416C184.421 25.9307 184.954 27.2107 186.021 28.256C187.087 29.3013 188.538 29.824 190.373 29.824C191.162 29.824 191.909 29.7387 192.613 29.568C193.317 29.376 193.829 29.184 194.149 28.992L194.597 28.736L195.525 30.4C195.461 30.4427 195.365 30.5173 195.237 30.624C195.13 30.7093 194.885 30.8587 194.501 31.072C194.117 31.2853 193.701 31.4773 193.253 31.648C192.122 32.096 190.853 32.32 189.445 32.32ZM193.317 22.208C193.21 20.8853 192.773 19.8827 192.005 19.2C191.258 18.496 190.277 18.144 189.061 18.144C187.866 18.144 186.874 18.4853 186.085 19.168C185.295 19.8293 184.783 20.8427 184.549 22.208H193.317ZM203.547 24.992C203.547 26.8267 203.824 28.0747 204.379 28.736C204.933 29.3973 205.776 29.728 206.907 29.728C208.037 29.728 208.965 29.5573 209.691 29.216L210.331 30.816C210.245 30.9227 210.117 31.0613 209.947 31.232C209.797 31.4027 209.403 31.6373 208.763 31.936C208.123 32.2133 207.419 32.352 206.651 32.352C204.709 32.352 203.205 31.808 202.139 30.72C201.072 29.6107 200.539 28 200.539 25.888V18.528H198.843V16.64L201.915 13.568H203.547V16H208.923V18.528H203.547V24.992Z" fill="#F5F5F5"/>
<path d="M3.624 9.824H0.936V7.904C1.768 7.49867 2.728 7.296 3.816 7.296C4.92533 7.296 5.672 7.56267 6.056 8.096C6.44 8.608 6.632 9.39733 6.632 10.464V17.376C7.656 16.2027 9.18133 15.616 11.208 15.616C12.8933 15.616 14.4507 16.192 15.88 17.344C16.6053 17.9413 17.1813 18.7947 17.608 19.904C18.056 20.992 18.28 22.2613 18.28 23.712C18.28 25.1627 18.0347 26.464 17.544 27.616C17.0533 28.7467 16.392 29.6427 15.56 30.304C13.8747 31.648 11.912 32.32 9.672 32.32C8.62667 32.32 7.592 32.1707 6.568 31.872C5.56533 31.552 4.81867 31.232 4.328 30.912L3.624 30.464V9.824ZM9.672 29.824C11.4 29.824 12.744 29.3227 13.704 28.32C14.6853 27.296 15.176 25.856 15.176 24C15.176 22.144 14.7067 20.704 13.768 19.68C12.8293 18.6347 11.8267 18.112 10.76 18.112C8.98933 18.112 7.61333 18.6347 6.632 19.68V29.28L7.016 29.376C8.14667 29.6747 9.032 29.824 9.672 29.824ZM35.3653 30.048C33.8079 31.584 31.8453 32.352 29.4773 32.352C27.1093 32.352 25.1466 31.584 23.5893 30.048C22.0319 28.4907 21.2533 26.4747 21.2533 24C21.2533 21.5253 22.0319 19.5093 23.5893 17.952C25.1466 16.3947 27.1093 15.616 29.4773 15.616C31.8453 15.616 33.8079 16.3947 35.3653 17.952C36.9226 19.5093 37.7013 21.5253 37.7013 24C37.7013 26.4747 36.9226 28.4907 35.3653 30.048ZM25.7973 28.288C26.7573 29.312 27.9839 29.824 29.4773 29.824C30.9706 29.824 32.1973 29.312 33.1573 28.288C34.1173 27.2427 34.5973 25.8453 34.5973 24.096C34.5973 22.3467 34.1066 20.9173 33.1253 19.808C32.1653 18.6987 30.9493 18.144 29.4773 18.144C28.0053 18.144 26.7786 18.6987 25.7973 19.808C24.8373 20.9173 24.3573 22.3467 24.3573 24.096C24.3573 25.8453 24.8373 27.2427 25.7973 28.288ZM54.7715 30.048C53.2142 31.584 51.2515 32.352 48.8835 32.352C46.5155 32.352 44.5528 31.584 42.9955 30.048C41.4382 28.4907 40.6595 26.4747 40.6595 24C40.6595 21.5253 41.4382 19.5093 42.9955 17.952C44.5528 16.3947 46.5155 15.616 48.8835 15.616C51.2515 15.616 53.2142 16.3947 54.7715 17.952C56.3288 19.5093 57.1075 21.5253 57.1075 24C57.1075 26.4747 56.3288 28.4907 54.7715 30.048ZM45.2035 28.288C46.1635 29.312 47.3902 29.824 48.8835 29.824C50.3768 29.824 51.6035 29.312 52.5635 28.288C53.5235 27.2427 54.0035 25.8453 54.0035 24.096C54.0035 22.3467 53.5128 20.9173 52.5315 19.808C51.5715 18.6987 50.3555 18.144 48.8835 18.144C47.4115 18.144 46.1848 18.6987 45.2035 19.808C44.2435 20.9173 43.7635 22.3467 43.7635 24.096C43.7635 25.8453 44.2435 27.2427 45.2035 28.288ZM78.9138 32H71.2338V30.624L72.8978 30.016L65.2818 22.528L71.2018 17.696L68.9298 17.376V16H76.9618V17.376L74.5618 17.984L68.9298 22.528L76.5138 30.016L78.9138 30.624V32ZM67.9378 32H59.5218V30.624L62.2098 29.568V9.824H59.5218V7.904C60.3538 7.49867 61.3138 7.296 62.4018 7.296C63.5111 7.296 64.2578 7.56267 64.6418 8.096C65.0258 8.608 65.2178 9.39733 65.2178 10.464V29.568L67.9378 30.624V32Z" fill="#F5F5F5"/>
</svg>
